<svg width="24" height="24" viewBox="0 0 24 24" fill="none" xmlns="http://www.w3.org/2000/svg">
<path d="M20 7H13C12.4 7 12 6.6 12 6C12 5.4 12.4 5 13 5H20C20.6 5 21 5.4 21 6C21 6.6 20.6 7 20 7Z" fill="#7A46D9"/>
<path d="M20 13H11C10.4 13 10 12.6 10 12C10 11.4 10.4 11 11 11H20C20.6 11 21 11.4 21 12C21 12.6 20.6 13 20 13Z" fill="#7A46D9"/>
<path d="M20 19H13C12.4 19 12 18.6 12 18C12 17.4 12.4 17 13 17H20C20.6 17 21 17.4 21 18C21 18.6 20.6 19 20 19Z" fill="#7A46D9"/>
<path d="M8 17C7.7 17 7.5 16.9 7.3 16.7L3.3 12.7C2.9 12.3 2.9 11.7 3.3 11.3L7.3 7.3C7.7 6.9 8.3 6.9 8.7 7.3C9.1 7.7 9.1 8.3 8.7 8.7L5.4 12L8.7 15.3C9.1 15.7 9.1 16.3 8.7 16.7C8.5 16.9 8.3 17 8 17Z" fill="#7A46D9"/>
</svg>
