<svg width="40" height="40" viewBox="0 0 40 40" fill="none" xmlns="http://www.w3.org/2000/svg">
<path d="M19.9499 36.6666C29.1546 36.6666 36.6165 29.2047 36.6165 19.9999C36.6165 10.7952 29.1546 3.33325 19.9499 3.33325C10.7451 3.33325 3.2832 10.7952 3.2832 19.9999C3.2832 29.2047 10.7451 36.6666 19.9499 36.6666Z" fill="#E8E8E8"/>
<path d="M24.9496 17.05L20.1163 14.2667C18.9163 13.5667 17.4663 13.5667 16.2663 14.2667C15.0663 14.9667 14.3496 16.2 14.3496 17.6V23.1834C14.3496 24.5667 15.0663 25.8167 16.2663 26.5167C16.8663 26.8667 17.5329 27.0334 18.1829 27.0334C18.8496 27.0334 19.4996 26.8667 20.0996 26.5167L24.9329 23.7334C26.1329 23.0334 26.8496 21.8 26.8496 20.4C26.8829 19 26.1663 17.75 24.9496 17.05Z" fill="white"/>
</svg>
