<svg width="41" height="40" viewBox="0 0 41 40" fill="none" xmlns="http://www.w3.org/2000/svg">
<path d="M12.5 9.71429V4H23.9286V9.71429C23.9286 10.0174 23.8082 10.3081 23.5938 10.5224C23.3795 10.7367 23.0888 10.8571 22.7857 10.8571H13.6429C13.3398 10.8571 13.0491 10.7367 12.8347 10.5224C12.6204 10.3081 12.5 10.0174 12.5 9.71429ZM11.3571 36H29.6429V32.0686H11.3571V36ZM11.3571 29.7829H29.6429V27.4971H11.3571V29.7829ZM35.3571 11.6571L30.0657 5.24571C29.7445 4.8566 29.3413 4.54319 28.8849 4.32786C28.4286 4.11252 27.9303 4.00058 27.4257 4H26.2143V9.71429C26.2143 10.6236 25.8531 11.4957 25.2101 12.1387C24.5671 12.7816 23.695 13.1429 22.7857 13.1429H13.6429C12.7335 13.1429 11.8615 12.7816 11.2185 12.1387C10.5755 11.4957 10.2143 10.6236 10.2143 9.71429V4H7.92857C7.01926 4 6.14719 4.36122 5.50421 5.00421C4.86122 5.64719 4.5 6.51926 4.5 7.42857V32.5714C4.5 33.4807 4.86122 34.3528 5.50421 34.9958C6.14719 35.6388 7.01926 36 7.92857 36H9.07143V24.5714C9.07143 23.6621 9.43265 22.79 10.0756 22.1471C10.7186 21.5041 11.5907 21.1429 12.5 21.1429H28.5C29.4093 21.1429 30.2814 21.5041 30.9244 22.1471C31.5674 22.79 31.9286 23.6621 31.9286 24.5714V36H33.0714C33.9807 36 34.8528 35.6388 35.4958 34.9958C36.1388 34.3528 36.5 33.4807 36.5 32.5714V14.1943C36.4974 13.715 36.3944 13.2416 36.1975 12.8046C36.0007 12.3675 35.7144 11.9767 35.3571 11.6571ZM28.5 23.4286H12.5C12.1969 23.4286 11.9062 23.549 11.6919 23.7633C11.4776 23.9776 11.3571 24.2683 11.3571 24.5714V25.2114H29.6429V24.5714C29.6429 24.2683 29.5225 23.9776 29.3081 23.7633C29.0938 23.549 28.8031 23.4286 28.5 23.4286Z" fill="#269AF2"/>
</svg>
