<svg width="40" height="40" viewBox="0 0 40 40" fill="none" xmlns="http://www.w3.org/2000/svg">
<path d="M32.25 22.8126H35.5642L32.25 17.8413V22.8126Z" fill="#269AF2"/>
<path d="M7.74973 17.8413L4.43555 22.8126H7.74973V17.8413Z" fill="#269AF2"/>
<path d="M24.75 27.5C24.75 28.0178 24.3303 28.4375 23.8125 28.4375H16.1875C15.6697 28.4375 15.25 28.0178 15.25 27.5V24.6875H4V35.0625C4 35.5807 4.41931 36 4.9375 36H35.0625C35.5807 36 36 35.5807 36 35.0625V24.6875H24.75V27.5Z" fill="#269AF2"/>
<path d="M27.5625 4H12.4375C11.9193 4 11.5 4.41931 11.5 4.9375V7.8125H28.5V4.9375C28.5 4.41931 28.0807 4 27.5625 4Z" fill="#269AF2"/>
<path d="M22.875 26.5625V23.75C22.875 23.2322 23.2947 22.8125 23.8125 22.8125H30.375C30.375 18.2247 30.375 14.9858 30.375 10.625C30.375 10.1068 29.9557 9.6875 29.4375 9.6875H10.5625C10.0443 9.6875 9.625 10.1068 9.625 10.625C9.625 10.9444 9.625 23.5596 9.625 22.8119H16.1875C16.7053 22.8119 17.125 23.2322 17.125 23.75V26.5625H22.875ZM14.3125 11.5625H25.6875C26.2057 11.5625 26.625 11.9818 26.625 12.5C26.625 13.0182 26.2057 13.4375 25.6875 13.4375H14.3125C13.7943 13.4375 13.375 13.0182 13.375 12.5C13.375 11.9818 13.7943 11.5625 14.3125 11.5625ZM14.3125 15.3125H25.6875C26.2057 15.3125 26.625 15.7318 26.625 16.25C26.625 16.7682 26.2057 17.1875 25.6875 17.1875H14.3125C13.7943 17.1875 13.375 16.7682 13.375 16.25C13.375 15.7318 13.7943 15.3125 14.3125 15.3125ZM14.3125 20.9375C13.7943 20.9375 13.375 20.5182 13.375 20C13.375 19.4818 13.7943 19.0625 14.3125 19.0625H21.9375C22.4557 19.0625 22.875 19.4818 22.875 20C22.875 20.5182 22.4557 20.9375 21.9375 20.9375H14.3125Z" fill="#269AF2"/>
</svg>
