<svg width="22" height="22" viewBox="0 0 22 22" fill="none" xmlns="http://www.w3.org/2000/svg">
<path d="M9.16667 20.1666H12.8333C17.4167 20.1666 19.25 18.3333 19.25 13.7499V8.24992C19.25 3.66659 17.4167 1.83325 12.8333 1.83325H9.16667C4.58333 1.83325 2.75 3.66659 2.75 8.24992V13.7499C2.75 18.3333 4.58333 20.1666 9.16667 20.1666Z" stroke="#7A46D9" stroke-width="1.5" stroke-linecap="round" stroke-linejoin="round"/>
<path d="M15.125 6.94824V7.86491C15.125 8.61658 14.5108 9.23991 13.75 9.23991H8.25C7.49833 9.23991 6.875 8.62574 6.875 7.86491V6.94824C6.875 6.19658 7.48917 5.57324 8.25 5.57324H13.75C14.5108 5.57324 15.125 6.18741 15.125 6.94824Z" stroke="#7A46D9" stroke-width="1.5" stroke-linecap="round" stroke-linejoin="round"/>
<path d="M7.45811 12.8333H7.4687" stroke="#7A46D9" stroke-width="2" stroke-linecap="round" stroke-linejoin="round"/>
<path d="M10.9957 12.8333H11.0063" stroke="#7A46D9" stroke-width="2" stroke-linecap="round" stroke-linejoin="round"/>
<path d="M14.5333 12.8333H14.5439" stroke="#7A46D9" stroke-width="2" stroke-linecap="round" stroke-linejoin="round"/>
<path d="M7.45811 16.0416H7.4687" stroke="#7A46D9" stroke-width="2" stroke-linecap="round" stroke-linejoin="round"/>
<path d="M10.9957 16.0416H11.0063" stroke="#7A46D9" stroke-width="2" stroke-linecap="round" stroke-linejoin="round"/>
<path d="M14.5333 16.0416H14.5439" stroke="#7A46D9" stroke-width="2" stroke-linecap="round" stroke-linejoin="round"/>
</svg>
