<svg width="34" height="34" viewBox="0 0 34 34" fill="none" xmlns="http://www.w3.org/2000/svg">
<path d="M4.85742 26.1072H7.2866V27.9286H4.85742V26.1072Z" fill="#7A46D9"/>
<path d="M27.3212 20.6428C26.0003 20.6428 24.709 21.0345 23.6107 21.7684C22.5125 22.5022 21.6564 23.5453 21.151 24.7656C20.6455 25.986 20.5132 27.3288 20.7709 28.6243C21.0286 29.9198 21.6647 31.1098 22.5987 32.0439C23.5327 32.9779 24.7227 33.6139 26.0182 33.8716C27.3137 34.1293 28.6566 33.9971 29.8769 33.4916C31.0973 32.9861 32.1403 32.1301 32.8742 31.0318C33.608 29.9335 33.9997 28.6423 33.9997 27.3214C33.9976 25.5508 33.2933 23.8533 32.0413 22.6012C30.7893 21.3492 29.0918 20.6449 27.3212 20.6428ZM31.6877 25.6348L26.5361 30.7864C26.4223 30.9002 26.2679 30.9641 26.1069 30.9641C25.9459 30.9641 25.7915 30.9002 25.6776 30.7864L23.1021 28.2103C22.9915 28.0957 22.9303 27.9424 22.9317 27.7832C22.9331 27.624 22.9969 27.4717 23.1095 27.3591C23.2221 27.2466 23.3744 27.1827 23.5336 27.1813C23.6927 27.18 23.8461 27.2412 23.9606 27.3518L26.1069 29.4986L30.8292 24.7762C30.9437 24.6657 31.0971 24.6045 31.2563 24.6058C31.4155 24.6072 31.5678 24.6711 31.6803 24.7836C31.7929 24.8962 31.8568 25.0485 31.8581 25.2077C31.8595 25.3669 31.7983 25.5202 31.6877 25.6348Z" fill="#7A46D9"/>
<path d="M12.1426 15.1785H14.5718V16.9999H12.1426V15.1785Z" fill="#7A46D9"/>
<path d="M19.4277 15.1785H21.8563V16.9999H19.4277V15.1785Z" fill="#7A46D9"/>
<path d="M4.85742 20.6428H7.2866V22.4643H4.85742V20.6428Z" fill="#7A46D9"/>
<path d="M12.1426 20.6428H14.5718V22.4643H12.1426V20.6428Z" fill="#7A46D9"/>
<path d="M4.85742 15.1785H7.2866V16.9999H4.85742V15.1785Z" fill="#7A46D9"/>
<path d="M7.28655 6.07143C7.6083 6.07047 7.91661 5.94223 8.14412 5.71471C8.37163 5.4872 8.49988 5.1789 8.50084 4.85714V1.21429C8.50084 0.892237 8.3729 0.583379 8.14518 0.355656C7.91746 0.127933 7.6086 0 7.28655 0C6.9645 0 6.65564 0.127933 6.42792 0.355656C6.2002 0.583379 6.07227 0.892237 6.07227 1.21429V4.85714C6.07323 5.1789 6.20147 5.4872 6.42898 5.71471C6.6565 5.94223 6.9648 6.07047 7.28655 6.07143Z" fill="#7A46D9"/>
<path d="M16.9994 6.07143C17.3212 6.07047 17.6295 5.94223 17.857 5.71471C18.0845 5.4872 18.2128 5.1789 18.2137 4.85714V1.21429C18.2137 0.892237 18.0858 0.583379 17.8581 0.355656C17.6303 0.127933 17.3215 0 16.9994 0C16.6774 0 16.3685 0.127933 16.1408 0.355656C15.9131 0.583379 15.7852 0.892237 15.7852 1.21429V4.85714C15.7861 5.1789 15.9144 5.4872 16.1419 5.71471C16.3694 5.94223 16.6777 6.07047 16.9994 6.07143Z" fill="#7A46D9"/>
<path d="M26.7143 6.07143C27.036 6.07047 27.3443 5.94223 27.5719 5.71471C27.7994 5.4872 27.9276 5.1789 27.9286 4.85714V1.21429C27.9286 0.892237 27.8006 0.583379 27.5729 0.355656C27.3452 0.127933 27.0363 0 26.7143 0C26.3922 0 26.0834 0.127933 25.8557 0.355656C25.6279 0.583379 25.5 0.892237 25.5 1.21429V4.85714C25.501 5.1789 25.6292 5.4872 25.8567 5.71471C26.0842 5.94223 26.3925 6.07047 26.7143 6.07143Z" fill="#7A46D9"/>
<path d="M26.7148 15.1785H29.1434V16.9999H26.7148V15.1785Z" fill="#7A46D9"/>
<path d="M32.1786 3.64282H29.1429V4.85711C29.1429 5.50121 28.887 6.11892 28.4315 6.57437C27.9761 7.02981 27.3584 7.28568 26.7143 7.28568C26.0702 7.28568 25.4525 7.02981 24.997 6.57437C24.5416 6.11892 24.2857 5.50121 24.2857 4.85711V3.64282H19.4286V4.85711C19.4286 5.50121 19.1727 6.11892 18.7173 6.57437C18.2618 7.02981 17.6441 7.28568 17 7.28568C16.3559 7.28568 15.7382 7.02981 15.2827 6.57437C14.8273 6.11892 14.5714 5.50121 14.5714 4.85711V3.64282H9.71429V4.85711C9.71429 5.50121 9.45842 6.11892 9.00297 6.57437C8.54753 7.02981 7.92981 7.28568 7.28571 7.28568C6.64162 7.28568 6.0239 7.02981 5.56845 6.57437C5.11301 6.11892 4.85714 5.50121 4.85714 4.85711V3.64282H1.82143C1.3388 3.64426 0.876349 3.83663 0.535076 4.1779C0.193804 4.51917 0.00144141 4.98162 0 5.46425V9.71425H34V5.46425C33.9986 4.98162 33.8062 4.51917 33.4649 4.1779C33.1237 3.83663 32.6612 3.64426 32.1786 3.64282Z" fill="#7A46D9"/>
<path d="M12.1426 26.1072H14.5718V27.9286H12.1426V26.1072Z" fill="#7A46D9"/>
<path d="M0 10.9285V29.7499C0.00144141 30.2325 0.193804 30.695 0.535076 31.0362C0.876349 31.3775 1.3388 31.5699 1.82143 31.5713H20.6811C20.127 30.6968 19.7505 29.7217 19.5732 28.7017C19.396 27.6816 19.4213 26.6367 19.6479 25.6265C19.8744 24.6163 20.2977 23.6606 20.8937 22.8139C21.4896 21.9673 22.2464 21.2464 23.1209 20.6922C23.9954 20.1381 24.9706 19.7617 25.9906 19.5844C27.0106 19.4071 28.0555 19.4324 29.0658 19.659C30.076 19.8856 31.0317 20.3089 31.8783 20.9048C32.7249 21.5007 33.4459 22.2575 34 23.132V10.9285H0ZM8.5 27.9285C8.5 28.2505 8.37207 28.5594 8.14434 28.7871C7.91662 29.0148 7.60776 29.1428 7.28571 29.1428H4.85714C4.53509 29.1428 4.22624 29.0148 3.99851 28.7871C3.77079 28.5594 3.64286 28.2505 3.64286 27.9285V26.107C3.64286 25.785 3.77079 25.4761 3.99851 25.2484C4.22624 25.0207 4.53509 24.8928 4.85714 24.8928H7.28571C7.60776 24.8928 7.91662 25.0207 8.14434 25.2484C8.37207 25.4761 8.5 25.785 8.5 26.107V27.9285ZM8.5 22.4642C8.5 22.7862 8.37207 23.0951 8.14434 23.3228C7.91662 23.5505 7.60776 23.6785 7.28571 23.6785H4.85714C4.53509 23.6785 4.22624 23.5505 3.99851 23.3228C3.77079 23.0951 3.64286 22.7862 3.64286 22.4642V20.6428C3.64286 20.3207 3.77079 20.0118 3.99851 19.7841C4.22624 19.5564 4.53509 19.4285 4.85714 19.4285H7.28571C7.60776 19.4285 7.91662 19.5564 8.14434 19.7841C8.37207 20.0118 8.5 20.3207 8.5 20.6428V22.4642ZM8.5 16.9999C8.5 17.3219 8.37207 17.6308 8.14434 17.8585C7.91662 18.0862 7.60776 18.2142 7.28571 18.2142H4.85714C4.53509 18.2142 4.22624 18.0862 3.99851 17.8585C3.77079 17.6308 3.64286 17.3219 3.64286 16.9999V15.1785C3.64286 14.8564 3.77079 14.5476 3.99851 14.3198C4.22624 14.0921 4.53509 13.9642 4.85714 13.9642H7.28571C7.60776 13.9642 7.91662 14.0921 8.14434 14.3198C8.37207 14.5476 8.5 14.8564 8.5 15.1785V16.9999ZM15.7857 27.9285C15.7857 28.2505 15.6578 28.5594 15.4301 28.7871C15.2023 29.0148 14.8935 29.1428 14.5714 29.1428H12.1429C11.8208 29.1428 11.512 29.0148 11.2842 28.7871C11.0565 28.5594 10.9286 28.2505 10.9286 27.9285V26.107C10.9286 25.785 11.0565 25.4761 11.2842 25.2484C11.512 25.0207 11.8208 24.8928 12.1429 24.8928H14.5714C14.8935 24.8928 15.2023 25.0207 15.4301 25.2484C15.6578 25.4761 15.7857 25.785 15.7857 26.107V27.9285ZM15.7857 22.4642C15.7857 22.7862 15.6578 23.0951 15.4301 23.3228C15.2023 23.5505 14.8935 23.6785 14.5714 23.6785H12.1429C11.8208 23.6785 11.512 23.5505 11.2842 23.3228C11.0565 23.0951 10.9286 22.7862 10.9286 22.4642V20.6428C10.9286 20.3207 11.0565 20.0118 11.2842 19.7841C11.512 19.5564 11.8208 19.4285 12.1429 19.4285H14.5714C14.8935 19.4285 15.2023 19.5564 15.4301 19.7841C15.6578 20.0118 15.7857 20.3207 15.7857 20.6428V22.4642ZM15.7857 16.9999C15.7857 17.3219 15.6578 17.6308 15.4301 17.8585C15.2023 18.0862 14.8935 18.2142 14.5714 18.2142H12.1429C11.8208 18.2142 11.512 18.0862 11.2842 17.8585C11.0565 17.6308 10.9286 17.3219 10.9286 16.9999V15.1785C10.9286 14.8564 11.0565 14.5476 11.2842 14.3198C11.512 14.0921 11.8208 13.9642 12.1429 13.9642H14.5714C14.8935 13.9642 15.2023 14.0921 15.4301 14.3198C15.6578 14.5476 15.7857 14.8564 15.7857 15.1785V16.9999ZM21.8571 20.6428H19.4286V22.4642C19.5896 22.4642 19.744 22.5281 19.8579 22.642C19.9717 22.7559 20.0357 22.9103 20.0357 23.0713C20.0357 23.2323 19.9717 23.3868 19.8579 23.5006C19.744 23.6145 19.5896 23.6785 19.4286 23.6785C19.1065 23.6785 18.7977 23.5505 18.5699 23.3228C18.3422 23.0951 18.2143 22.7862 18.2143 22.4642V20.6428C18.2143 20.3207 18.3422 20.0118 18.5699 19.7841C18.7977 19.5564 19.1065 19.4285 19.4286 19.4285H21.8571C22.0182 19.4285 22.1726 19.4924 22.2865 19.6063C22.4003 19.7202 22.4643 19.8746 22.4643 20.0356C22.4643 20.1966 22.4003 20.3511 22.2865 20.4649C22.1726 20.5788 22.0182 20.6428 21.8571 20.6428ZM23.0714 16.9999C23.0714 17.3219 22.9435 17.6308 22.7158 17.8585C22.4881 18.0862 22.1792 18.2142 21.8571 18.2142H19.4286C19.1065 18.2142 18.7977 18.0862 18.5699 17.8585C18.3422 17.6308 18.2143 17.3219 18.2143 16.9999V15.1785C18.2143 14.8564 18.3422 14.5476 18.5699 14.3198C18.7977 14.0921 19.1065 13.9642 19.4286 13.9642H21.8571C22.1792 13.9642 22.4881 14.0921 22.7158 14.3198C22.9435 14.5476 23.0714 14.8564 23.0714 15.1785V16.9999ZM30.3571 16.9999C30.3571 17.3219 30.2292 17.6308 30.0015 17.8585C29.7738 18.0862 29.4649 18.2142 29.1429 18.2142H26.7143C26.3922 18.2142 26.0834 18.0862 25.8557 17.8585C25.6279 17.6308 25.5 17.3219 25.5 16.9999V15.1785C25.5 14.8564 25.6279 14.5476 25.8557 14.3198C26.0834 14.0921 26.3922 13.9642 26.7143 13.9642H29.1429C29.4649 13.9642 29.7738 14.0921 30.0015 14.3198C30.2292 14.5476 30.3571 14.8564 30.3571 15.1785V16.9999Z" fill="#7A46D9"/>
</svg>
