<svg width="28" height="28" viewBox="0 0 28 28" fill="none" xmlns="http://www.w3.org/2000/svg">
<path d="M18.0953 3.30176H9.90533C7.00033 3.30176 6.35866 4.74842 5.98533 6.52176L4.66699 12.8334H23.3337L22.0153 6.52176C21.642 4.74842 21.0003 3.30176 18.0953 3.30176Z" stroke="#A878FF" stroke-width="1.5" stroke-linecap="round" stroke-linejoin="round"/>
<path d="M25.6552 23.1235C25.7835 24.4885 24.6868 25.6668 23.2868 25.6668H21.0935C19.8335 25.6668 19.6585 25.1302 19.4368 24.4652L19.2035 23.7652C18.8768 22.8085 18.6668 22.1668 16.9868 22.1668H11.0135C9.33351 22.1668 9.08851 22.8902 8.79685 23.7652L8.56351 24.4652C8.34185 25.1302 8.16685 25.6668 6.90685 25.6668H4.71351C3.31351 25.6668 2.21685 24.4885 2.34518 23.1235L2.99851 16.0185C3.16185 14.2685 3.50018 12.8335 6.55685 12.8335H21.4435C24.5002 12.8335 24.8385 14.2685 25.0018 16.0185L25.6552 23.1235Z" stroke="#A878FF" stroke-width="1.5" stroke-linecap="round" stroke-linejoin="round"/>
<path d="M4.66667 9.3335H3.5" stroke="#A878FF" stroke-width="1.5" stroke-linecap="round" stroke-linejoin="round"/>
<path d="M24.4997 9.3335H23.333" stroke="#A878FF" stroke-width="1.5" stroke-linecap="round" stroke-linejoin="round"/>
<path d="M14 3.5V5.83333" stroke="#A878FF" stroke-width="1.5" stroke-linecap="round" stroke-linejoin="round"/>
<path d="M12.25 5.8335H15.75" stroke="#A878FF" stroke-width="1.5" stroke-linecap="round" stroke-linejoin="round"/>
<path d="M7 17.5H10.5" stroke="#A878FF" stroke-width="1.5" stroke-linecap="round" stroke-linejoin="round"/>
<path d="M17.5 17.5H21" stroke="#A878FF" stroke-width="1.5" stroke-linecap="round" stroke-linejoin="round"/>
</svg>
