<svg width="28" height="32" viewBox="0 0 28 32" fill="none" xmlns="http://www.w3.org/2000/svg">
<path d="M21 0.0310196C20.876 0.0310196 8.99999 0 8.99999 0C6.88398 0 5.00002 1.94101 5.00002 4.00002L3.84401 4.02702C1.729 4.02702 0 5.94099 0 8V28C0 30.059 1.88401 32 4.00002 32H19C21.116 32 23 30.059 23 28H24C26.116 28 28 26.0591 28 24V8.02402L21 0.0310196ZM19 30.0001H4.00002C2.95002 30.0001 2.00003 29.0191 2.00003 28V8C2.00003 6.51202 3.22403 6.00001 5.00002 6.00001V24C5.00002 26.0591 6.88398 28 8.99999 28C8.99999 28 19.842 27.989 21.009 27.989C21.009 29.2031 20.213 30.0001 19 30.0001ZM21 21.011H12C11.448 21.011 11 20.564 11 20.012C11 19.46 11.448 19.013 12 19.013H21C21.552 19.013 22 19.46 22 20.012C22 20.564 21.552 21.011 21 21.011ZM21 16.016H12C11.448 16.016 11 15.569 11 15.017C11 14.465 11.448 14.018 12 14.018H21C21.552 14.018 22 14.465 22 15.017C22 15.568 21.552 16.016 21 16.016ZM23 8C21.935 8 21 7.03903 21 6.00001C21 6.00001 21 3.97399 21 2.03101V2.029L26 8H23Z" fill="#F9A633"/>
</svg>
