<svg width="40" height="40" viewBox="0 0 40 40" fill="none" xmlns="http://www.w3.org/2000/svg">
<path d="M19.9997 36.6666C29.2044 36.6666 36.6663 29.2047 36.6663 19.9999C36.6663 10.7952 29.2044 3.33325 19.9997 3.33325C10.7949 3.33325 3.33301 10.7952 3.33301 19.9999C3.33301 29.2047 10.7949 36.6666 19.9997 36.6666Z" fill="#F03B45"/>
<path d="M21.7663 20.0001L25.5996 16.1668C26.0829 15.6834 26.0829 14.8834 25.5996 14.4001C25.1163 13.9168 24.3163 13.9168 23.8329 14.4001L19.9996 18.2334L16.1663 14.4001C15.6829 13.9168 14.8829 13.9168 14.3996 14.4001C13.9163 14.8834 13.9163 15.6834 14.3996 16.1668L18.2329 20.0001L14.3996 23.8334C13.9163 24.3168 13.9163 25.1168 14.3996 25.6001C14.6496 25.8501 14.9663 25.9668 15.2829 25.9668C15.5996 25.9668 15.9163 25.8501 16.1663 25.6001L19.9996 21.7668L23.8329 25.6001C24.0829 25.8501 24.3996 25.9668 24.7163 25.9668C25.0329 25.9668 25.3496 25.8501 25.5996 25.6001C26.0829 25.1168 26.0829 24.3168 25.5996 23.8334L21.7663 20.0001Z" fill="white"/>
</svg>
