<svg width="41" height="40" viewBox="0 0 41 40" fill="none" xmlns="http://www.w3.org/2000/svg">
<path d="M8.38867 13.375L10.0492 33.4209C10.1682 34.8666 11.3996 36 12.8507 36H28.151C29.6022 36 30.8335 34.8666 30.9525 33.4209L32.613 13.375H8.38867ZM15.8125 32.25C15.3217 32.25 14.9089 31.8682 14.8777 31.3711L13.9402 16.2461C13.9082 15.7288 14.3009 15.2839 14.8173 15.2518C15.3529 15.2143 15.7786 15.6116 15.8115 16.1289L16.749 31.2539C16.7822 31.7895 16.3584 32.25 15.8125 32.25ZM21.4384 31.3125C21.4384 31.8307 21.019 32.25 20.5009 32.25C19.9827 32.25 19.5634 31.8307 19.5634 31.3125V16.1875C19.5634 15.6693 19.9827 15.25 20.5009 15.25C21.019 15.25 21.4384 15.6693 21.4384 16.1875V31.3125ZM27.0615 16.2461L26.124 31.3711C26.0932 31.8632 25.683 32.2734 25.1297 32.2482C24.6134 32.2161 24.2206 31.7712 24.2527 31.2539L25.1902 16.1289C25.2222 15.6117 25.6754 15.2354 26.1844 15.2519C26.7008 15.2839 27.0935 15.7289 27.0615 16.2461Z" fill="#F03B45"/>
<path d="M32.6875 7.75H27.0625V6.8125C27.0625 5.26163 25.8009 4 24.25 4H16.75C15.1991 4 13.9375 5.26163 13.9375 6.8125V7.75H8.3125C7.27694 7.75 6.4375 8.58944 6.4375 9.625C6.4375 10.6604 7.27694 11.5 8.3125 11.5C16.9354 11.5 24.0649 11.5 32.6875 11.5C33.7231 11.5 34.5625 10.6604 34.5625 9.625C34.5625 8.58944 33.7231 7.75 32.6875 7.75ZM25.1875 7.75H15.8125V6.8125C15.8125 6.29525 16.2327 5.875 16.75 5.875H24.25C24.7673 5.875 25.1875 6.29525 25.1875 6.8125V7.75Z" fill="#F03B45"/>
</svg>
