<svg width="44" height="44" viewBox="0 0 44 44" fill="none" xmlns="http://www.w3.org/2000/svg">
<path opacity="0.4" d="M38.5 40.3335H5.5C4.74833 40.3335 4.125 39.7102 4.125 38.9585C4.125 38.2068 4.74833 37.5835 5.5 37.5835H38.5C39.2517 37.5835 39.875 38.2068 39.875 38.9585C39.875 39.7102 39.2517 40.3335 38.5 40.3335Z" fill="#F03B45"/>
<path opacity="0.4" d="M34.8701 6.38021C31.3134 2.82354 27.8301 2.73187 24.1817 6.38021L21.9634 8.59854C21.7801 8.78187 21.7067 9.07521 21.7801 9.33187C23.1734 14.1902 27.0601 18.0769 31.9184 19.4702C31.9917 19.4885 32.0651 19.5069 32.1384 19.5069C32.3401 19.5069 32.5234 19.4335 32.6701 19.2869L34.8701 17.0685C36.6851 15.2719 37.5651 13.5302 37.5651 11.7702C37.5834 9.95521 36.7034 8.19521 34.8701 6.38021Z" fill="#F03B45"/>
<path d="M28.6192 21.1385C28.0876 20.8818 27.5742 20.6251 27.0792 20.3318C26.6759 20.0935 26.2909 19.8368 25.9059 19.5618C25.5942 19.3601 25.2276 19.0668 24.8792 18.7735C24.8426 18.7551 24.7142 18.6451 24.5676 18.4985C23.9626 17.9851 23.2842 17.3251 22.6792 16.5918C22.6242 16.5551 22.5326 16.4268 22.4042 16.2618C22.2209 16.0418 21.9092 15.6751 21.6342 15.2535C21.4142 14.9785 21.1576 14.5751 20.9192 14.1718C20.6259 13.6768 20.3692 13.1818 20.1126 12.6685C19.8559 12.1185 19.6542 11.5868 19.4709 11.0918L7.95758 22.6051C7.71924 22.8435 7.49924 23.3018 7.44424 23.6135L6.45424 30.6351C6.27091 31.8818 6.61924 33.0551 7.38924 33.8435C8.04924 34.4851 8.96591 34.8335 9.95591 34.8335C10.1759 34.8335 10.3959 34.8151 10.6159 34.7785L17.6559 33.7885C17.9859 33.7335 18.4442 33.5135 18.6642 33.2751L30.1776 21.7618C29.6642 21.5785 29.1692 21.3768 28.6192 21.1385Z" fill="#F03B45"/>
</svg>
