<svg width="28" height="28" viewBox="0 0 28 28" fill="none" xmlns="http://www.w3.org/2000/svg">
<path d="M25.6667 9.94016V4.6435C25.6667 2.9985 24.92 2.3335 23.065 2.3335H18.3517C16.4967 2.3335 15.75 2.9985 15.75 4.6435V9.9285C15.75 11.5852 16.4967 12.2385 18.3517 12.2385H23.065C24.92 12.2502 25.6667 11.5852 25.6667 9.94016Z" stroke="#A878FF" stroke-width="1.5" stroke-linecap="round" stroke-linejoin="round"/>
<path d="M25.6667 23.065V18.3517C25.6667 16.4967 24.92 15.75 23.065 15.75H18.3517C16.4967 15.75 15.75 16.4967 15.75 18.3517V23.065C15.75 24.92 16.4967 25.6667 18.3517 25.6667H23.065C24.92 25.6667 25.6667 24.92 25.6667 23.065Z" stroke="#A878FF" stroke-width="1.5" stroke-linecap="round" stroke-linejoin="round"/>
<path d="M12.2497 9.94016V4.6435C12.2497 2.9985 11.503 2.3335 9.64801 2.3335H4.93467C3.07967 2.3335 2.33301 2.9985 2.33301 4.6435V9.9285C2.33301 11.5852 3.07967 12.2385 4.93467 12.2385H9.64801C11.503 12.2502 12.2497 11.5852 12.2497 9.94016Z" stroke="#A878FF" stroke-width="1.5" stroke-linecap="round" stroke-linejoin="round"/>
<path d="M12.2497 23.065V18.3517C12.2497 16.4967 11.503 15.75 9.64801 15.75H4.93467C3.07967 15.75 2.33301 16.4967 2.33301 18.3517V23.065C2.33301 24.92 3.07967 25.6667 4.93467 25.6667H9.64801C11.503 25.6667 12.2497 24.92 12.2497 23.065Z" stroke="#A878FF" stroke-width="1.5" stroke-linecap="round" stroke-linejoin="round"/>
</svg>
