<svg width="20" height="20" viewBox="0 0 20 20" fill="none" xmlns="http://www.w3.org/2000/svg">
<path d="M10.0003 1.66683C14.6027 1.66683 18.3337 5.39779 18.3337 10.0002C18.3337 14.6025 14.6027 18.3335 10.0003 18.3335C5.39795 18.3335 1.66699 14.6025 1.66699 10.0002C1.66699 5.39779 5.39795 1.66683 10.0003 1.66683Z" fill="#A878FF"/>
<path d="M10.125 9.16683C10.125 9.13668 10.1127 9.1054 10.0871 9.07976C10.0614 9.05411 10.0301 9.04183 10 9.04183C9.96985 9.04183 9.93857 9.05411 9.91293 9.07976C9.88728 9.1054 9.875 9.13668 9.875 9.16683V13.3335C9.875 13.3636 9.88728 13.3949 9.91293 13.4206C9.93857 13.4462 9.96985 13.4585 10 13.4585C10.0301 13.4585 10.0614 13.4462 10.0871 13.4206C10.1127 13.3949 10.125 13.3636 10.125 13.3335V9.16683Z" fill="white" stroke="white"/>
<path d="M10.767 6.98311C10.7253 7.08311 10.667 7.17477 10.592 7.25811C10.5087 7.33311 10.417 7.39144 10.317 7.43311C10.117 7.51644 9.88366 7.51644 9.68366 7.43311C9.58366 7.39144 9.49199 7.33311 9.40866 7.25811C9.33366 7.17477 9.27533 7.08311 9.23366 6.98311C9.19199 6.88311 9.16699 6.77477 9.16699 6.66644C9.16699 6.55811 9.19199 6.44977 9.23366 6.34977C9.27533 6.24144 9.33366 6.15811 9.40866 6.07477C9.49199 5.99977 9.58366 5.94144 9.68366 5.89977C9.78366 5.8581 9.89199 5.83311 10.0003 5.83311C10.1087 5.83311 10.217 5.8581 10.317 5.89977C10.417 5.94144 10.5087 5.99977 10.592 6.07477C10.667 6.15811 10.7253 6.24144 10.767 6.34977C10.8087 6.44977 10.8337 6.55811 10.8337 6.66644C10.8337 6.77477 10.8087 6.88311 10.767 6.98311Z" fill="white"/>
</svg>
