<svg width="28" height="28" viewBox="0 0 28 28" fill="none" xmlns="http://www.w3.org/2000/svg">
<path d="M22.3945 6.16164L22.3955 6.16205C23.1944 6.51592 23.6065 6.91394 23.8222 7.24604C24.0376 7.57758 24.0813 7.88037 24.0813 8.08489C24.0813 8.2865 24.036 8.58966 23.8185 8.92275C23.6007 9.25621 23.1876 9.65451 22.3943 10.0082L15.5592 13.0525C15.5589 13.0527 15.5587 13.0528 15.5584 13.0529C15.1324 13.241 14.574 13.3482 13.9996 13.3482C13.4253 13.3482 12.8668 13.241 12.4408 13.0529C12.4405 13.0528 12.4403 13.0527 12.4401 13.0525L5.60494 10.0082C4.81172 9.65451 4.39854 9.25621 4.18077 8.92275C3.96324 8.58966 3.91797 8.2865 3.91797 8.08489C3.91797 7.88328 3.96324 7.58013 4.18077 7.24704C4.39854 6.91357 4.81172 6.51528 5.60494 6.16154L12.4401 3.11724C12.4402 3.11715 12.4404 3.11706 12.4406 3.11698C12.8641 2.93002 13.4217 2.82739 13.9996 2.82739C14.5776 2.82739 15.1351 2.93 15.5585 3.11692C15.5587 3.11703 15.559 3.11713 15.5592 3.11724L22.3945 6.16164Z" fill="#7A46D9" stroke="#7A46D9"/>
<path opacity="0.4" d="M13.202 18.4817L13.202 18.4817L13.205 18.483C13.706 18.7022 14.283 18.7022 14.7841 18.483L14.7841 18.483L14.787 18.4817L22.6484 14.9826C22.6488 14.9824 22.6491 14.9823 22.6495 14.9821C23.0551 14.8033 23.3995 14.4582 23.6389 14.0905C23.8787 13.7223 24.0554 13.2667 24.0554 12.8216C24.0554 12.6194 24.2165 12.4583 24.4187 12.4583C24.6209 12.4583 24.782 12.6194 24.782 12.8216C24.782 13.3611 24.5869 13.9564 24.2455 14.4835C23.9043 15.0103 23.4401 15.433 22.9436 15.6548C22.9435 15.6549 22.9433 15.655 22.9431 15.655L15.0819 19.1541C15.0817 19.1542 15.0815 19.1543 15.0813 19.1544C14.7491 19.3008 14.3748 19.3799 14.0004 19.3799C13.6277 19.3799 13.2523 19.3015 12.9054 19.1533L5.04592 15.655C5.0458 15.655 5.04568 15.6549 5.04556 15.6549C4.54807 15.4326 4.08397 15.0121 3.74325 14.4874C3.40244 13.9626 3.20703 13.3674 3.20703 12.8216C3.20703 12.6194 3.36817 12.4583 3.57036 12.4583C3.77256 12.4583 3.9337 12.6194 3.9337 12.8216C3.9337 13.2617 4.11098 13.7171 4.34954 14.0852C4.58789 14.4529 4.93216 14.8025 5.33958 14.9821C5.33994 14.9823 5.3403 14.9824 5.34066 14.9826L13.202 18.4817Z" stroke="#7A46D9"/>
<path opacity="0.4" d="M5.04535 21.4417L5.04535 21.4417L5.04395 21.441C3.93157 20.95 3.20703 19.8353 3.20703 18.6085C3.20703 18.4063 3.36817 18.2451 3.57036 18.2451C3.77256 18.2451 3.9337 18.4063 3.9337 18.6085C3.9337 19.5419 4.48241 20.3847 5.3375 20.768L5.33871 20.7686L13.202 24.2686L13.202 24.2686L13.205 24.2699C13.706 24.4891 14.283 24.4891 14.7841 24.2699L14.7841 24.2699L14.787 24.2686L22.6479 20.7697C22.6483 20.7695 22.6487 20.7693 22.6491 20.7691C23.4959 20.3971 24.0554 19.5407 24.0554 18.6085C24.0554 18.4063 24.2165 18.2451 24.4187 18.2451C24.6209 18.2451 24.782 18.4063 24.782 18.6085C24.782 19.8324 24.0599 20.9384 22.9426 21.4422C22.9423 21.4423 22.942 21.4424 22.9417 21.4426L15.0819 24.941C15.0816 24.9411 15.0814 24.9412 15.0812 24.9413C14.749 25.0877 14.3748 25.1668 14.0004 25.1668C13.6277 25.1668 13.2523 25.0884 12.9054 24.9402L5.04535 21.4417Z" stroke="#7A46D9"/>
</svg>
