<svg width="28" height="28" viewBox="0 0 28 28" fill="none" xmlns="http://www.w3.org/2000/svg">
<path d="M2.67188 9.07648V20.4281C2.67188 22.6448 4.24688 23.5548 6.16021 22.4581L8.90187 20.8948C9.49687 20.5565 10.4885 20.5215 11.1069 20.8365L17.2319 23.9048C17.8502 24.2081 18.8419 24.1848 19.4369 23.8465L24.4885 20.9531C25.1302 20.5798 25.6669 19.6698 25.6669 18.9231V7.57148C25.6669 5.35481 24.0919 4.44481 22.1785 5.54148L19.4369 7.10481C18.8419 7.44314 17.8502 7.47814 17.2319 7.16314L11.1069 4.10648C10.4885 3.80314 9.49687 3.82648 8.90187 4.16481L3.85021 7.05814C3.19687 7.43148 2.67188 8.34148 2.67188 9.07648Z" stroke="#A878FF" stroke-width="1.5" stroke-linecap="round" stroke-linejoin="round"/>
<path d="M9.98633 4.6665V19.8332" stroke="#A878FF" stroke-width="1.5" stroke-linecap="round" stroke-linejoin="round"/>
<path d="M18.3516 7.72314V23.3331" stroke="#A878FF" stroke-width="1.5" stroke-linecap="round" stroke-linejoin="round"/>
</svg>
