<svg width="44" height="44" viewBox="0 0 44 44" fill="none" xmlns="http://www.w3.org/2000/svg">
<path d="M25.666 9.16667C25.666 7.15 24.016 5.5 21.9993 5.5C19.9827 5.5 18.3327 7.15 18.3327 9.16667C18.3327 11.1833 19.9827 12.8333 21.9993 12.8333C24.016 12.8333 25.666 11.1833 25.666 9.16667Z" fill="#606060"/>
<path d="M25.666 34.8334C25.666 32.8167 24.016 31.1667 21.9993 31.1667C19.9827 31.1667 18.3327 32.8167 18.3327 34.8334C18.3327 36.8501 19.9827 38.5001 21.9993 38.5001C24.016 38.5001 25.666 36.8501 25.666 34.8334Z" fill="#606060"/>
<path d="M25.666 21.9999C25.666 19.9833 24.016 18.3333 21.9993 18.3333C19.9827 18.3333 18.3327 19.9833 18.3327 21.9999C18.3327 24.0166 19.9827 25.6666 21.9993 25.6666C24.016 25.6666 25.666 24.0166 25.666 21.9999Z" fill="#606060"/>
</svg>
