<svg width="28" height="28" viewBox="0 0 28 28" fill="none" xmlns="http://www.w3.org/2000/svg">
<path d="M15.6406 9.07812C15.6406 8.62546 15.273 8.25781 14.8203 8.25781H13.1797V9.89844H14.8203C15.273 9.89844 15.6406 9.53079 15.6406 9.07812Z" fill="#269AF2"/>
<path d="M14 16.4609C17.1659 16.4609 19.7422 13.8846 19.7422 10.7188C19.7422 7.55286 17.1659 4.97656 14 4.97656C10.8341 4.97656 8.25781 7.55286 8.25781 10.7188C8.25781 13.8846 10.8341 16.4609 14 16.4609ZM11.5391 6.61719H14.8203C16.1772 6.61719 17.2812 7.72119 17.2812 9.07812C17.2812 10.4351 16.1772 11.5391 14.8203 11.5391H13.1797V14.8203H11.5391V6.61719Z" fill="#269AF2"/>
<path d="M14 28L22.5259 17.1242L22.5355 17.1123C23.9279 15.257 24.6641 13.046 24.6641 10.7188C24.6641 4.83878 19.88 0 14 0C8.12003 0 3.33594 4.83878 3.33594 10.7188C3.33594 13.046 4.07208 15.257 5.47409 17.1242L14 28ZM14 3.33594C18.071 3.33594 21.3828 6.64774 21.3828 10.7188C21.3828 14.7898 18.071 18.1016 14 18.1016C9.92899 18.1016 6.61719 14.7898 6.61719 10.7188C6.61719 6.64774 9.92899 3.33594 14 3.33594Z" fill="#269AF2"/>
</svg>
