<svg width="32" height="32" viewBox="0 0 32 32" fill="none" xmlns="http://www.w3.org/2000/svg">
<path opacity="0.4" d="M28.8337 15.9998C28.8337 23.0875 23.088 28.8332 16.0003 28.8332C8.91267 28.8332 3.16699 23.0875 3.16699 15.9998C3.16699 8.91218 8.91267 3.1665 16.0003 3.1665C23.088 3.1665 28.8337 8.91218 28.8337 15.9998Z" fill="#F03B45" stroke="#F03B45"/>
<path d="M17.0602 15.6464L16.7067 16L17.0602 16.3535L20.1269 19.4202C20.3183 19.6116 20.3183 19.935 20.1269 20.1264C20.0256 20.2277 19.9017 20.2733 19.7738 20.2733C19.6459 20.2733 19.522 20.2277 19.4207 20.1264L16.354 17.0598L16.0005 16.7062L15.6469 17.0598L12.5802 20.1264C12.479 20.2277 12.355 20.2733 12.2271 20.2733C12.0993 20.2733 11.9753 20.2277 11.874 20.1264C11.6826 19.935 11.6826 19.6116 11.874 19.4202L14.9407 16.3535L15.2942 16L14.9407 15.6464L11.874 12.5798C11.6826 12.3884 11.6826 12.0649 11.874 11.8735C12.0654 11.6821 12.3888 11.6821 12.5802 11.8735L15.6469 14.9402L16.0005 15.2938L16.354 14.9402L19.4207 11.8735C19.6121 11.6821 19.9355 11.6821 20.1269 11.8735C20.3183 12.0649 20.3183 12.3884 20.1269 12.5798L17.0602 15.6464Z" stroke="#F03B45"/>
</svg>
