<svg width="44" height="44" viewBox="0 0 44 44" fill="none" xmlns="http://www.w3.org/2000/svg">
<g clip-path="url(#clip0_2012_5950)">
<path d="M22.0008 9.39073C21.1407 9.39073 20.4434 8.69352 20.4434 7.83329V1.55745C20.4434 0.697211 21.1407 0 22.0008 0C22.861 0 23.5582 0.697211 23.5582 1.55745V7.83337C23.5582 8.69352 22.861 9.39073 22.0008 9.39073Z" fill="#269AF2"/>
<path opacity="0.52" d="M22.0008 44C21.1407 44 20.4434 43.3027 20.4434 42.4425V36.1666C20.4434 35.3063 21.1407 34.6091 22.0008 34.6091C22.861 34.6091 23.5582 35.3063 23.5582 36.1666V42.4425C23.5582 43.3027 22.861 44 22.0008 44Z" fill="#269AF2"/>
<path opacity="0.58" d="M29.7249 42.4842C29.1108 42.4842 28.5288 42.1186 28.2825 41.5151L25.9108 35.7046C25.5857 34.9083 25.9679 33.9991 26.7642 33.6742C27.56 33.3487 28.4695 33.7311 28.7946 34.5274L31.1663 40.3379C31.4914 41.1343 31.1092 42.0434 30.3129 42.3683C30.1202 42.4471 29.9209 42.4842 29.7249 42.4842Z" fill="#269AF2"/>
<path opacity="0.94" d="M27.3522 10.4417C27.1562 10.4417 26.9569 10.4046 26.7642 10.3258C25.9678 10.0009 25.5857 9.09173 25.9109 8.29535L28.2825 2.48485C28.6075 1.68847 29.5165 1.30528 30.3129 1.63158C31.1093 1.95642 31.4914 2.86564 31.1663 3.66202L28.7947 9.47252C28.5483 10.0761 27.9663 10.4417 27.3522 10.4417Z" fill="#269AF2"/>
<path opacity="0.46" d="M14.2741 42.4843C14.078 42.4843 13.8788 42.4472 13.6861 42.3684C12.8897 42.0435 12.5076 41.1343 12.8327 40.3379L15.2043 34.5274C15.5294 33.731 16.4384 33.3487 17.2348 33.6742C18.0312 33.9991 18.4132 34.9083 18.0881 35.7047L15.7165 41.5152C15.4701 42.1187 14.8882 42.4843 14.2741 42.4843Z" fill="#269AF2"/>
<path opacity="0.36" d="M3.07402 31.2831C2.45991 31.2831 1.87794 30.9177 1.63155 30.3139C1.30645 29.5176 1.68853 28.6084 2.48483 28.2835L8.29523 25.9118C9.09153 25.5857 10.0007 25.9683 10.3258 26.765C10.6509 27.5614 10.2688 28.4705 9.47249 28.7954L3.66209 31.1671C3.46941 31.2459 3.27004 31.2831 3.07402 31.2831Z" fill="#269AF2"/>
<path opacity="0.82" d="M35.117 18.2041C34.5029 18.2041 33.9209 17.8388 33.6745 17.235C33.3494 16.4386 33.7315 15.5295 34.5278 15.2045L40.3382 12.8328C41.1342 12.507 42.0437 12.8894 42.3687 13.6861C42.6938 14.4825 42.3118 15.3916 41.5155 15.7165L35.7051 18.0882C35.5124 18.167 35.313 18.2041 35.117 18.2041Z" fill="#269AF2"/>
<path opacity="0.24" d="M8.88332 18.2041C8.68729 18.2041 8.488 18.167 8.29525 18.0882L2.48484 15.7165C1.68846 15.3916 1.30646 14.4824 1.63157 13.686C1.95658 12.8896 2.86546 12.5076 3.6621 12.8327L9.4725 15.2044C10.2689 15.5293 10.6509 16.4385 10.3258 17.2349C10.0794 17.8384 9.49734 18.2041 8.88332 18.2041Z" fill="#269AF2"/>
<path opacity="0.7" d="M40.9263 31.283C40.7303 31.283 40.531 31.2458 40.3382 31.167L34.5278 28.7953C33.7314 28.4705 33.3494 27.5613 33.6745 26.7649C33.9996 25.9691 34.9085 25.5868 35.7051 25.9117L41.5155 28.2834C42.3119 28.6082 42.6938 29.5175 42.3687 30.3138C42.1224 30.9173 41.5403 31.283 40.9263 31.283Z" fill="#269AF2"/>
<path opacity="0.88" d="M32.0164 13.5401C31.6178 13.5401 31.2193 13.388 30.9152 13.0839C30.307 12.4758 30.3069 11.4896 30.9151 10.8815L35.3527 6.44381C35.9609 5.83546 36.947 5.83546 37.5552 6.44381C38.1634 7.05191 38.1635 8.03804 37.5553 8.64613L33.1177 13.0839C32.8136 13.388 32.4149 13.5401 32.0164 13.5401Z" fill="#269AF2"/>
<path opacity="0.4" d="M7.54566 38.0125C7.14708 38.0125 6.74859 37.8604 6.44446 37.5563C5.83628 36.9482 5.83619 35.962 6.44437 35.3539L10.882 30.9162C11.4902 30.3079 12.4763 30.3079 13.0845 30.9162C13.6927 31.5243 13.6928 32.5104 13.0846 33.1185L8.64695 37.5563C8.34282 37.8604 7.94415 38.0125 7.54566 38.0125Z" fill="#269AF2"/>
<path opacity="0.18" d="M11.9833 13.5402C11.5847 13.5402 11.1863 13.388 10.882 13.0839L6.44441 8.64618C5.83623 8.03809 5.83623 7.05196 6.44449 6.44386C7.05259 5.83577 8.03872 5.83577 8.64698 6.44386L13.0846 10.8816C13.6928 11.4897 13.6928 12.4758 13.0845 13.0839C12.7805 13.388 12.3818 13.5402 11.9833 13.5402Z" fill="#269AF2"/>
<path opacity="0.64" d="M36.454 38.0126C36.0553 38.0126 35.6569 37.8605 35.3527 37.5563L30.9151 33.1186C30.3069 32.5105 30.307 31.5244 30.9152 30.9163C31.5233 30.3082 32.5095 30.3082 33.1177 30.9163L37.5553 35.354C38.1635 35.9621 38.1635 36.9482 37.5552 37.5563C37.2512 37.8605 36.8526 38.0126 36.454 38.0126Z" fill="#269AF2"/>
<path opacity="0.3" d="M7.83312 23.5575H1.55745C0.697297 23.5575 0 22.8603 0 22.0001C0 21.1398 0.697297 20.4426 1.55745 20.4426H7.83312C8.69327 20.4426 9.39056 21.1398 9.39056 22.0001C9.39056 22.8603 8.69327 23.5575 7.83312 23.5575Z" fill="#269AF2"/>
<path opacity="0.76" d="M42.4427 23.5575H36.1668C35.3067 23.5575 34.6094 22.8603 34.6094 22.0001C34.6094 21.1398 35.3067 20.4426 36.1668 20.4426H42.4427C43.3028 20.4426 44.0001 21.1398 44.0001 22.0001C44.0001 22.8603 43.3029 23.5575 42.4427 23.5575Z" fill="#269AF2"/>
</g>
<defs>
<clipPath id="clip0_2012_5950">
<rect width="44" height="44" fill="white"/>
</clipPath>
</defs>
</svg>
