<?xml version="1.0" encoding="UTF-8" standalone="no"?>
<!-- Created with Inkscape (http://www.inkscape.org/) -->

<svg
   xmlns:dc="http://purl.org/dc/elements/1.1/"
   xmlns:cc="http://creativecommons.org/ns#"
   xmlns:rdf="http://www.w3.org/1999/02/22-rdf-syntax-ns#"
   xmlns:svg="http://www.w3.org/2000/svg"
   xmlns="http://www.w3.org/2000/svg"
   xmlns:sodipodi="http://sodipodi.sourceforge.net/DTD/sodipodi-0.dtd"
   xmlns:inkscape="http://www.inkscape.org/namespaces/inkscape"
   width="16px"
   height="16px"
   viewBox="0 0 16 16"
   version="1.1"
   id="SVGRoot"
   inkscape:version="0.92.3 (2405546, 2018-03-11)"
   sodipodi:docname="settings.svg">
  <sodipodi:namedview
     id="base"
     pagecolor="#ffffff"
     bordercolor="#666666"
     borderopacity="1.0"
     inkscape:pageopacity="0.0"
     inkscape:pageshadow="2"
     inkscape:zoom="45.254834"
     inkscape:cx="6.3558827"
     inkscape:cy="7.81913"
     inkscape:document-units="px"
     inkscape:current-layer="layer1"
     showgrid="false"
     inkscape:window-width="1920"
     inkscape:window-height="1025"
     inkscape:window-x="-8"
     inkscape:window-y="-8"
     inkscape:window-maximized="1"
     inkscape:grid-bbox="true" />
  <defs
     id="defs3802" />
  <metadata
     id="metadata3805">
    <rdf:RDF>
      <cc:Work
         rdf:about="">
        <dc:format>image/svg+xml</dc:format>
        <dc:type
           rdf:resource="http://purl.org/dc/dcmitype/StillImage" />
        <dc:title />
      </cc:Work>
    </rdf:RDF>
  </metadata>
  <g
     id="layer1"
     inkscape:groupmode="layer"
     inkscape:label="Layer 1">
    <path
       style="fill:#808080;fill-rule:nonzero;fill-opacity:1"
       inkscape:connector-curvature="0"
       id="path3755"
       d="m 15.984082,10.131499 c 0.024,0.142 0.024,0.308 -0.023,0.497 -0.036,0.19 -0.095,0.39 -0.166,0.592 a 2.667,2.667 0 0 1 -0.296,0.545 1.024,1.024 0 0 1 -0.379,0.343 0.838,0.838 0 0 1 -0.355,0.107 0.989,0.989 0 0 1 -0.343,-0.071 2.899,2.899 0 0 0 -0.427,-0.095 1.92,1.92 0 0 0 -0.52,-0.012 c -0.178,0.012 -0.356,0.06 -0.534,0.107 a 0.969,0.969 0 0 0 -0.45,0.296 1.724,1.724 0 0 0 -0.485,0.982 c -0.047,0.367 0.012,0.71 0.154,1.042 0.118,0.225 0.095,0.462 -0.047,0.687 -0.071,0.095 -0.178,0.19 -0.332,0.284 -0.154,0.095 -0.308,0.19 -0.485,0.273 a 3.084,3.084 0 0 1 -0.557,0.189 c -0.19,0.047 -0.367,0.071 -0.52,0.071 a 0.43,0.43 0 0 1 -0.2970002,-0.118 0.639,0.639 0 0 1 -0.19,-0.26 h -0.023 a 2.247,2.247 0 0 0 -0.64,-0.924 1.571,1.571 0 0 0 -1.053,-0.391 c -0.39,0 -0.746,0.13 -1.054,0.39 a 2.1,2.1 0 0 0 -0.663,0.9 0.54,0.54 0 0 1 -0.26,0.297 0.781,0.781 0 0 1 -0.3800004,0.094 c -0.153,0 -0.343,-0.023 -0.544,-0.083 a 6.125,6.125 0 0 1 -0.604,-0.213 3.397,3.397 0 0 1 -0.544,-0.296 c -0.154,-0.118 -0.285,-0.225 -0.356,-0.343 a 0.482,0.482 0 0 1 -0.094,-0.284 c -0.012,-0.107 0.035,-0.26 0.13,-0.45 0.13,-0.26 0.177,-0.569 0.142,-0.9 -0.024,-0.343 -0.178,-0.651 -0.438,-0.935 a 1.071,1.071 0 0 0 -0.58,-0.332 2.517,2.517 0 0 0 -0.652,-0.06 c -0.236,0.013 -0.485,0.06 -0.734,0.143 a 0.695,0.695 0 0 1 -0.48500001,-0.036 c -0.13,-0.047 -0.249,-0.154 -0.355,-0.32 a 5.902,5.902 0 0 1 -0.296,-0.544 3.743,3.743 0 0 1 -0.202,-0.616 1.384,1.384 0 0 1 -0.035,-0.52 c 0.035,-0.2499995 0.142,-0.4149995 0.343,-0.4859995 0.344,-0.142 0.65100001,-0.367 0.92400001,-0.675 0.272,-0.32 0.414,-0.663 0.414,-1.054 0,-0.402 -0.142,-0.746 -0.414,-1.042 a 2.445,2.445 0 0 0 -0.92400001,-0.651 0.462,0.462 0 0 1 -0.248,-0.249 0.854,0.854 0 0 1 -0.107000003964,-0.402 c 0,-0.154 0.02400000396,-0.32 0.07100000396,-0.497 0.047,-0.178 0.107,-0.356 0.178,-0.533 0.07,-0.178 0.165,-0.3319997 0.26,-0.4739997 0.095,-0.142 0.201,-0.249 0.32,-0.32 a 0.396,0.396 0 0 1 0.27200001,-0.07 c 0.083,0.011 0.178,0.035 0.284,0.07 0.344,0.142 0.699,0.178 1.078,0.13 0.367,-0.047 0.698,-0.212 0.983,-0.485 0.142,-0.142 0.236,-0.308 0.296,-0.509 a 2.76,2.76 0 0 0 0.118,-0.592 c 0.024,-0.19 0.024,-0.367 0,-0.533 -0.012,-0.166 -0.036,-0.272 -0.047,-0.343 a 1.385,1.385 0 0 1 -0.06,-0.237 0.312,0.312 0 0 1 0.024,-0.237 c 0.071,-0.154 0.19,-0.296 0.367,-0.414 0.178,-0.119 0.367,-0.225 0.58,-0.296 0.202,-0.083 0.403,-0.142 0.604,-0.178 0.19,-0.035 0.344,-0.059 0.462,-0.059 0.142,0 0.2600004,0.047 0.3550004,0.142 a 0.983,0.983 0 0 1 0.178,0.296 c 0.13,0.308 0.331,0.58 0.615,0.817 0.285,0.237 0.628,0.355 1.007,0.355 0.402,0 0.758,-0.106 1.065,-0.331 a 1.84,1.84 0 0 0 0.652,-0.853 c 0.047,-0.094 0.118,-0.19 0.213,-0.284 a 0.433,0.433 0 0 1 0.2950002,-0.142 c 0.154,0 0.331,0.024 0.52,0.071 0.19,0.047 0.38,0.107 0.557,0.19 0.19,0.082 0.356,0.177 0.51,0.307 0.153,0.13 0.272,0.26 0.366,0.415 0.06,0.094 0.072,0.19 0.048,0.296 -0.024,0.106 -0.048,0.19 -0.071,0.237 -0.154,0.331 -0.19,0.674 -0.142,1.042 0.059,0.367 0.225,0.686 0.497,0.959 0.272,0.272 0.616,0.426 1.006,0.45 0.403,0.023 0.77,-0.036 1.113,-0.202 a 0.512,0.512 0 0 1 0.332,-0.07 c 0.13,0.011 0.237,0.058 0.332,0.153 0.165,0.154 0.32,0.4029997 0.45,0.7339997 0.13,0.332 0.224,0.651 0.26,0.983 0.024,0.19 -0.012,0.343 -0.095,0.45 a 0.639,0.639 0 0 1 -0.272,0.213 c -0.355,0.13 -0.651,0.343 -0.912,0.663 a 1.685,1.685 0 0 0 -0.379,1.078 c 0,0.39 0.107,0.734 0.32,1.018 0.213,0.296 0.485,0.497 0.829,0.627 a 0.984,0.984 0 0 1 0.201,0.142 0.46,0.46 0 0 1 0.343,0.3439995 z m -7.9680002,1.55 a 3.56,3.56 0 0 0 1.456,-0.295 3.703,3.703 0 0 0 1.9900002,-2.0009995 c 0.189,-0.45 0.295,-0.936 0.295,-1.445 0,-0.52 -0.094,-0.994 -0.296,-1.444 a 3.715,3.715 0 0 0 -0.793,-1.184 3.58,3.58 0 0 0 -1.1960002,-0.794 3.765,3.765 0 0 0 -1.456,-0.2959997 c -0.51,0 -0.995,0.095 -1.445,0.2959997 -0.45,0.19 -0.8400004,0.462 -1.1840004,0.794 a 3.715,3.715 0 0 0 -0.793,1.184 c -0.19,0.45 -0.296,0.935 -0.296,1.444 0,0.51 0.095,0.995 0.296,1.445 0.19,0.45 0.462,0.8519995 0.793,1.1959995 0.332,0.343 0.7340004,0.615 1.1840004,0.805 0.45,0.201 0.924,0.296 1.445,0.296 z" />
  </g>
</svg>
