<svg width="28" height="28" viewBox="0 0 28 28" fill="none" xmlns="http://www.w3.org/2000/svg">
<path d="M22.3297 22.7498C24.3947 20.6498 25.6663 17.7565 25.6663 14.5832C25.6663 8.14317 20.4397 2.9165 13.9997 2.9165C7.55967 2.9165 2.33301 8.14317 2.33301 14.5832C2.33301 17.7565 3.593 20.6265 5.64634 22.7382" stroke="#A878FF" stroke-width="1.5" stroke-miterlimit="10" stroke-linecap="round" stroke-linejoin="round"/>
<path d="M14 25.0834C16.1778 25.0834 17.9433 23.318 17.9433 21.1401C17.9433 18.9623 16.1778 17.1968 14 17.1968C11.8221 17.1968 10.0566 18.9623 10.0566 21.1401C10.0566 23.318 11.8221 25.0834 14 25.0834Z" stroke="#A878FF" stroke-width="1.5" stroke-miterlimit="10" stroke-linecap="round" stroke-linejoin="round"/>
<path d="M17.792 14H18.667C19.6237 14 20.417 13.2183 20.417 12.25C20.417 11.2933 19.6237 10.5 18.667 10.5C17.7103 10.5 16.917 11.2817 16.917 12.25V13.125C16.917 13.6033 17.3137 14 17.792 14Z" stroke="#A878FF" stroke-width="1.5" stroke-miterlimit="10" stroke-linecap="round" stroke-linejoin="round"/>
</svg>
