<svg width="32" height="32" viewBox="0 0 32 32" fill="none" xmlns="http://www.w3.org/2000/svg">
<path opacity="0.4" d="M28.8337 15.9998C28.8337 23.0875 23.088 28.8332 16.0003 28.8332C8.91267 28.8332 3.16699 23.0875 3.16699 15.9998C3.16699 8.91218 8.91267 3.1665 16.0003 3.1665C23.088 3.1665 28.8337 8.91218 28.8337 15.9998Z" fill="#26C597" stroke="#26C597"/>
<path d="M13.7534 18.7137L14.1069 19.0672L14.4605 18.7137L21.3138 11.8604C21.5052 11.6689 21.8286 11.6689 22.02 11.8604C22.2114 12.0518 22.2114 12.3752 22.02 12.5666L14.46 20.1266C14.3661 20.2205 14.2395 20.2735 14.1069 20.2735C13.9744 20.2735 13.8478 20.2205 13.7538 20.1266L9.98047 16.3532C9.78906 16.1618 9.78906 15.8384 9.98047 15.647C10.1719 15.4556 10.4953 15.4556 10.6867 15.647L13.7534 18.7137Z" stroke="#26C597"/>
</svg>
