<svg width="36" height="31" viewBox="0 0 36 31" fill="none" xmlns="http://www.w3.org/2000/svg">
<path d="M15.4497 1.69535L1.12361 26.5071C0.864828 26.9552 0.728564 27.4635 0.728516 27.9809C0.728468 28.4984 0.864638 29.0067 1.12334 29.4548C1.38203 29.9029 1.75414 30.275 2.20225 30.5337C2.65036 30.7924 3.15868 30.9286 3.67611 30.9285H32.3261C32.8435 30.9286 33.3518 30.7924 33.7999 30.5337C34.248 30.275 34.6201 29.9029 34.8788 29.4548C35.1375 29.0067 35.2737 28.4984 35.2737 27.9809C35.2736 27.4635 35.1373 26.9552 34.8786 26.5071L20.554 1.69535C20.2953 1.24737 19.9233 0.875366 19.4753 0.616726C19.0273 0.358086 18.5191 0.221924 18.0019 0.221924C17.4846 0.221924 16.9764 0.358086 16.5284 0.616726C16.0804 0.875366 15.7084 1.24737 15.4497 1.69535Z" fill="#F1A128"/>
<path d="M18.1861 9.3479H17.8124C16.8923 9.3479 16.1465 10.0938 16.1465 11.0138V18.9766C16.1465 19.8966 16.8923 20.6425 17.8124 20.6425H18.1861C19.1062 20.6425 19.852 19.8966 19.852 18.9766V11.0138C19.852 10.0938 19.1062 9.3479 18.1861 9.3479Z" fill="white"/>
<path d="M17.9992 26.9577C19.0225 26.9577 19.852 26.1282 19.852 25.105C19.852 24.0817 19.0225 23.2522 17.9992 23.2522C16.976 23.2522 16.1465 24.0817 16.1465 25.105C16.1465 26.1282 16.976 26.9577 17.9992 26.9577Z" fill="white"/>
</svg>
